<?xml version="1.0" encoding="utf-8"?>
<!-- Generator: Adobe Illustrator 16.0.2, SVG Export Plug-In . SVG Version: 6.00 Build 0)  -->
<!DOCTYPE svg PUBLIC "-//W3C//DTD SVG 1.1//EN" "http://www.w3.org/Graphics/SVG/1.1/DTD/svg11.dtd">
<svg version="1.1" id="Layer_1" xmlns="http://www.w3.org/2000/svg" xmlns:xlink="http://www.w3.org/1999/xlink" x="0px" y="0px"
	 width="56.693px" height="56.693px" viewBox="0 0 56.693 56.693" enable-background="new 0 0 56.693 56.693" xml:space="preserve">
<path d="M28.346,0.028c-15.641,0-28.319,12.679-28.319,28.319c0,15.642,12.677,28.318,28.319,28.318s28.318-12.677,28.318-28.318
	C56.665,12.707,43.987,0.028,28.346,0.028z M38.22,44.012c-1.523,0.715-2.902,1.22-4.139,1.509c-1.237,0.29-2.57,0.434-4.006,0.434
	c-1.631,0-2.592-0.205-3.847-0.612c-1.251-0.413-2.32-1.004-3.202-1.761c-0.887-0.764-1.499-1.577-1.843-2.433
	c-0.341-0.858-0.512-2.103-0.512-3.735V24.91h-4.844v-5.049c1.402-0.455,3.024-1.107,4.021-1.958
	c1.004-0.851,1.804-1.871,2.409-3.063c0.603-1.188,1.022-2.702,1.249-4.544h5.071v8.25h8.243v6.364h-8.243v9.144
	c0,2.069-0.026,3.262,0.191,3.846c0.217,0.585,0.763,1.19,1.36,1.541c0.791,0.472,1.689,0.709,2.706,0.709
	c1.807,0,3.601-0.588,5.388-1.76v5.623H38.22z"/>
</svg>
