<?xml version="1.0" encoding="utf-8"?>
<!-- Generator: Adobe Illustrator 16.0.2, SVG Export Plug-In . SVG Version: 6.00 Build 0)  -->
<!DOCTYPE svg PUBLIC "-//W3C//DTD SVG 1.1//EN" "http://www.w3.org/Graphics/SVG/1.1/DTD/svg11.dtd">
<svg version="1.1" id="Layer_1" xmlns="http://www.w3.org/2000/svg" xmlns:xlink="http://www.w3.org/1999/xlink" x="0px" y="0px"
	 width="56.693px" height="56.693px" viewBox="0 0 56.693 56.693" enable-background="new 0 0 56.693 56.693" xml:space="preserve">
<path d="M28.347,0.028c-15.641,0-28.319,12.679-28.319,28.319c0,15.642,12.678,28.318,28.319,28.318
	c15.64,0,28.316-12.677,28.316-28.318C56.664,12.707,43.986,0.028,28.347,0.028z M44.75,21.372
	c-1.893,10.659-12.459,19.68-15.638,21.742c-3.181,2.058-6.08-0.828-7.131-3.01c-1.204-2.488-4.813-15.979-5.757-17.099
	c-0.946-1.119-3.78,1.12-3.78,1.12l-1.375-1.806c0,0,5.757-6.873,10.138-7.736c4.645-0.907,4.637,7.135,5.757,11.601
	c1.079,4.321,1.805,6.79,2.749,6.79c0.946,0,2.75-2.406,4.727-6.102c1.979-3.697-0.086-6.963-3.954-4.64
	C32.033,12.954,46.64,10.721,44.75,21.372z"/>
</svg>
