<?xml version="1.0" encoding="utf-8"?>
<!-- Generator: Adobe Illustrator 16.0.2, SVG Export Plug-In . SVG Version: 6.00 Build 0)  -->
<!DOCTYPE svg PUBLIC "-//W3C//DTD SVG 1.1//EN" "http://www.w3.org/Graphics/SVG/1.1/DTD/svg11.dtd">
<svg version="1.1" id="Layer_1" xmlns="http://www.w3.org/2000/svg" xmlns:xlink="http://www.w3.org/1999/xlink" x="0px" y="0px"
	 width="56.693px" height="56.693px" viewBox="0 0 56.693 56.693" enable-background="new 0 0 56.693 56.693" xml:space="preserve">
<path d="M28.347,0.029c-15.641,0-28.319,12.682-28.319,28.319c0,15.64,12.678,28.316,28.319,28.316
	c15.64,0,28.316-12.677,28.316-28.316C56.664,12.71,43.986,0.029,28.347,0.029z M42.611,22.638c0.016,0.306,0.021,0.613,0.021,0.923
	c0,9.431-7.179,20.305-20.305,20.305c-4.029,0-7.781-1.182-10.939-3.205c0.558,0.064,1.125,0.099,1.701,0.099
	c3.345,0,6.422-1.142,8.863-3.055c-3.122-0.059-5.757-2.123-6.665-4.957c0.435,0.085,0.881,0.127,1.342,0.127
	c0.651,0,1.281-0.085,1.88-0.25c-3.266-0.654-5.725-3.542-5.725-6.996c0-0.03,0-0.061,0.001-0.092
	c0.961,0.535,2.062,0.856,3.232,0.894c-1.916-1.282-3.175-3.463-3.175-5.941c0-1.307,0.352-2.535,0.966-3.588
	c3.521,4.317,8.779,7.159,14.711,7.456c-0.121-0.521-0.185-1.068-0.185-1.626c0-3.939,3.195-7.136,7.137-7.136
	c2.053,0,3.906,0.867,5.208,2.253c1.626-0.319,3.153-0.915,4.533-1.732c-0.536,1.667-1.666,3.066-3.141,3.947
	c1.445-0.171,2.821-0.556,4.101-1.123C45.218,20.375,44.007,21.632,42.611,22.638z"/>
</svg>
