<?xml version="1.0" encoding="utf-8"?>
<!-- Generator: Adobe Illustrator 16.0.2, SVG Export Plug-In . SVG Version: 6.00 Build 0)  -->
<!DOCTYPE svg PUBLIC "-//W3C//DTD SVG 1.1//EN" "http://www.w3.org/Graphics/SVG/1.1/DTD/svg11.dtd">
<svg version="1.1" id="Layer_1" xmlns="http://www.w3.org/2000/svg" xmlns:xlink="http://www.w3.org/1999/xlink" x="0px" y="0px"
	 width="56.693px" height="56.693px" viewBox="0 0 56.693 56.693" enable-background="new 0 0 56.693 56.693" xml:space="preserve">
<g>
	<path d="M39.494,25.505c-3.653,0-4.162,3.646-4.162,3.646H43.1C43.1,29.151,43.15,25.505,39.494,25.505z"/>
	<path d="M21.87,29.151h-6.887v6.322h6.097c0.103,0,0.258,0.003,0.44,0c0.981-0.022,2.84-0.308,2.84-3.073
		C24.36,29.119,21.87,29.151,21.87,29.151z"/>
	<path d="M28.347,0C12.691,0,0,12.689,0,28.345c0,15.655,12.691,28.348,28.348,28.348c15.653,0,28.346-12.692,28.346-28.348
		C56.693,12.69,44,0,28.347,0z M34.313,17.417h9.759v2.912h-9.759V17.417z M29.381,32.695c0,7.22-7.511,6.981-7.511,6.981h-6.887
		h-0.201H9.561V16.024h5.221h0.201h6.887c3.739,0,6.69,2.065,6.69,6.296c0,4.232-3.609,4.501-3.609,4.501
		C29.709,26.822,29.381,32.695,29.381,32.695z M47.636,32.308H35.38c0,4.394,4.161,4.116,4.161,4.116
		c3.931,0,3.794-2.545,3.794-2.545h4.163c0,6.754-8.096,6.291-8.096,6.291c-9.711,0-9.086-9.042-9.086-9.042
		s-0.01-9.087,9.086-9.087C48.976,22.042,47.636,32.308,47.636,32.308z"/>
	<path d="M23.542,22.688c0-2.461-1.672-2.461-1.672-2.461h-0.887h-6v5.277h6.459C22.557,25.505,23.542,25.147,23.542,22.688z"/>
</g>
</svg>
