<?xml version="1.0" encoding="utf-8"?>
<!-- Generator: Adobe Illustrator 16.0.2, SVG Export Plug-In . SVG Version: 6.00 Build 0)  -->
<!DOCTYPE svg PUBLIC "-//W3C//DTD SVG 1.1//EN" "http://www.w3.org/Graphics/SVG/1.1/DTD/svg11.dtd">
<svg version="1.1" id="Layer_1" xmlns="http://www.w3.org/2000/svg" xmlns:xlink="http://www.w3.org/1999/xlink" x="0px" y="0px"
	 width="67px" height="67px" viewBox="0 0 67 67" enable-background="new 0 0 67 67" xml:space="preserve">
<path fill="#333333" d="M19.59,34.135c-0.061,0,0.661,1.526,0.681,1.526c1.575,2.81,4.61,4.557,9.73,5.04
	c-0.731,0.546-1.609,1.579-1.73,2.774c-0.919,0.584-2.767,0.776-4.203,0.332c-2.014-0.625-2.784-4.541-5.798-3.982
	c-0.652,0.12-0.522,0.543,0.042,0.902c0.919,0.585,1.784,1.315,2.45,2.871c0.513,1.195,1.589,3.33,4.995,3.33
	c1.351,0,2.298-0.161,2.298-0.161s0.025,3.051,0.025,4.236c0,1.368-1.878,1.753-1.878,2.411c0,0.259,0.622,0.284,1.121,0.284
	c0.987,0,3.041-0.81,3.041-2.231c0-1.128,0.019-4.923,0.019-5.59c0-1.451,0.792-1.911,0.792-1.911s0.099,7.749-0.188,8.79
	c-0.338,1.222-0.946,1.048-0.946,1.594c0,0.811,2.473,0.2,3.292-1.581c0.634-1.383,0.356-8.989,0.356-8.989l0.676-0.015
	c0,0,0.037,3.481,0.015,5.073c-0.023,1.647-0.137,3.731,0.86,4.714c0.654,0.647,2.773,1.78,2.773,0.744
	c0-0.602-1.162-1.096-1.162-2.726v-7.499c0.929,0,0.789,2.466,0.789,2.466l0.068,4.582c0,0-0.206,1.669,1.837,2.366
	c0.72,0.249,2.262,0.316,2.333-0.1c0.072-0.417-1.855-1.037-1.873-2.327c-0.011-0.79,0.035-1.25,0.035-4.677
	c0-3.426-0.467-4.692-2.099-5.701c5.034-0.508,8.15-1.732,9.667-5.01c0.119,0.004,0.621-1.53,0.555-1.53
	c0.341-1.238,0.524-2.701,0.561-4.435c-0.009-4.701-2.298-6.364-2.736-7.144c0.647-3.559-0.11-5.178-0.46-5.734
	c-1.298-0.453-4.513,1.167-6.271,2.309c-2.864-0.823-8.918-0.744-11.188,0.212c-4.189-2.947-6.405-2.496-6.405-2.496
	s-1.432,2.523-0.378,6.215c-1.378,1.726-2.405,2.947-2.405,6.185C18.878,31.077,19.097,32.709,19.59,34.135z M33.5,67
	C14.999,67,0,52.001,0,33.5C0,14.998,14.999,0,33.5,0S67,14.998,67,33.5C67,52.001,52.001,67,33.5,67z"/>
</svg>
