<?xml version="1.0" encoding="utf-8"?>
<!-- Generator: Adobe Illustrator 16.0.2, SVG Export Plug-In . SVG Version: 6.00 Build 0)  -->
<!DOCTYPE svg PUBLIC "-//W3C//DTD SVG 1.1//EN" "http://www.w3.org/Graphics/SVG/1.1/DTD/svg11.dtd">
<svg version="1.1" id="Layer_1" xmlns="http://www.w3.org/2000/svg" xmlns:xlink="http://www.w3.org/1999/xlink" x="0px" y="0px"
	 width="67px" height="67px" viewBox="0 0 67 67" enable-background="new 0 0 67 67" xml:space="preserve">
<path fill="#517FA6" d="M43.854,25.212v-0.007c0.561,0,1.121,0.011,1.684-0.002c0.721-0.018,1.309-0.637,1.309-1.359
	c0-1.075,0-2.152,0-3.228c0-0.771-0.611-1.384-1.381-1.385c-1.073,0-2.146-0.001-3.219,0c-0.768,0.001-1.381,0.616-1.381,1.388
	c0,1.066-0.004,2.133,0.004,3.199c0,0.16,0.031,0.325,0.081,0.476c0.194,0.568,0.713,0.916,1.351,0.919
	C42.817,25.213,43.336,25.212,43.854,25.212z M33.5,26.596c-3.778-0.002-6.851,3.039-6.903,6.8
	c-0.055,3.863,3.038,6.925,6.745,7.003c3.857,0.083,6.976-2.999,7.059-6.748C40.483,29.787,37.366,26.593,33.5,26.596z
	 M20.151,30.279v0.092c0,5.042-0.001,10.084,0,15.125c0,0.726,0.627,1.35,1.353,1.35c7.996,0.001,15.99,0.001,23.985,0
	c0.732,0,1.357-0.622,1.357-1.354c0.001-5.035,0-10.073,0-15.106v-0.104h-3.252c0.459,1.467,0.6,2.96,0.42,4.481
	c-0.18,1.522-0.672,2.938-1.47,4.246c-0.799,1.309-1.836,2.396-3.104,3.259c-3.287,2.24-7.616,2.438-11.106,0.479
	c-1.763-0.989-3.148-2.367-4.115-4.146c-1.439-2.65-1.669-5.433-0.825-8.32C22.314,30.279,21.24,30.279,20.151,30.279z
	 M47.129,50.534c0.177-0.029,0.355-0.054,0.53-0.092c1.392-0.296,2.527-1.456,2.8-2.855c0.028-0.152,0.051-0.306,0.075-0.457V19.87
	c-0.022-0.148-0.044-0.3-0.072-0.448c-0.299-1.527-1.559-2.711-3.104-2.924c-0.065-0.007-0.127-0.022-0.19-0.033H19.833
	c-0.165,0.03-0.331,0.052-0.493,0.089c-1.51,0.344-2.626,1.559-2.842,3.088c-0.009,0.064-0.022,0.127-0.032,0.191v27.333
	c0.031,0.173,0.056,0.347,0.095,0.52c0.333,1.477,1.593,2.62,3.093,2.813c0.072,0.009,0.146,0.023,0.218,0.033H47.129z M33.5,67
	C14.999,67,0,52.001,0,33.5C0,14.998,14.999,0,33.5,0S67,14.998,67,33.5C67,52.001,52.001,67,33.5,67z"/>
</svg>
