<?xml version="1.0" encoding="utf-8"?>
<!-- Generator: Adobe Illustrator 16.0.2, SVG Export Plug-In . SVG Version: 6.00 Build 0)  -->
<!DOCTYPE svg PUBLIC "-//W3C//DTD SVG 1.1//EN" "http://www.w3.org/Graphics/SVG/1.1/DTD/svg11.dtd">
<svg version="1.1" id="Layer_1" xmlns="http://www.w3.org/2000/svg" xmlns:xlink="http://www.w3.org/1999/xlink" x="0px" y="0px"
	 width="67px" height="67px" viewBox="0 0 67 67" enable-background="new 0 0 67 67" xml:space="preserve">
<path fill="#ED1983" d="M42.991,40.2c-3.391,0-6.142-2.749-6.142-6.142s2.751-6.142,6.142-6.142c3.392,0,6.143,2.75,6.143,6.142
	S46.383,40.2,42.991,40.2z M32.384,34.059c0-4.009-3.25-7.259-7.259-7.259s-7.258,3.25-7.258,7.259s3.25,7.258,7.258,7.258
	S32.384,38.067,32.384,34.059z M42.991,26.8c-4.008,0-7.258,3.25-7.258,7.259s3.25,7.258,7.258,7.258
	c4.009,0,7.259-3.249,7.259-7.258S47,26.8,42.991,26.8z M33.5,67C14.999,67,0,52.001,0,33.5C0,14.998,14.999,0,33.5,0
	S67,14.998,67,33.5C67,52.001,52.001,67,33.5,67z"/>
</svg>
